# xmcd CD database file
#
# Track frame offsets:
#	150
#	25955
#	43652
#	66592
#	93336
#	124045
#	157256
#
# Disc length: 2331 seconds
#
# Revision: 0
# Processed by: cddbd v1.5.2PL0 Copyright (c) Steve Scherf et al.
# Submitted via: CDex 1.70beta2
#
DISCID=60091907
DTITLE=Frankie Blues Boy Connolly - Old New Borrowed And Blues
DYEAR=2011
DGENRE=Blues
TTITLE0=01 - Devils Work (Connolly)
TTITLE1=02 - Dust My Broom
TTITLE2=03 - Hit The Road Jack
TTITLE3=04 - Somedays (Papa George)
TTITLE4=05 - Spoonfull
TTITLE5=06 - Stop
TTITLE6=07 - What you gonna do about it
EXTD=YEAR: 2011
EXTT0=
EXTT1=
EXTT2=
EXTT3=
EXTT4=
EXTT5=
EXTT6=
PLAYORDER=
